<?xml version="1.0" encoding="UTF-8"?>
<!DOCTYPE svg PUBLIC "-//W3C//DTD SVG 1.1//EN" "http://www.w3.org/Graphics/SVG/1.1/DTD/svg11.dtd">
<svg xmlns="http://www.w3.org/2000/svg" version="1.1" width="220px" height="200px" style="shape-rendering:geometricPrecision; text-rendering:geometricPrecision; image-rendering:optimizeQuality; fill-rule:evenodd; clip-rule:evenodd" xmlns:xlink="http://www.w3.org/1999/xlink">
<g><path style="opacity:0.952" fill="#fefffe" d="M 122.5,15.5 C 141.254,14.3028 159.588,16.4695 177.5,22C 188.972,26.4246 192.472,34.2579 188,45.5C 185.296,49.5803 182.129,53.247 178.5,56.5C 178.167,56.3333 177.833,56.1667 177.5,56C 184.878,48.5598 183.878,42.5598 174.5,38C 157.99,34.1396 141.324,33.4729 124.5,36C 98.5682,38.6487 73.9015,45.6487 50.5,57C 48.2507,58.7455 46.5841,60.9121 45.5,63.5C 41.3562,60.5237 37.3562,57.357 33.5,54C 30.93,51.9327 28.93,49.4327 27.5,46.5C 30.3593,41.474 34.3593,37.6407 39.5,35C 66.2146,23.9608 93.8812,17.4608 122.5,15.5 Z"/></g>
<g><path style="opacity:0.928" fill="#fefffe" d="M 121.5,48.5 C 134.445,47.8455 147.111,49.3455 159.5,53C 169.134,57.3088 170.968,63.8088 165,72.5C 158.848,79.2089 158.015,78.5423 162.5,70.5C 162.61,68.626 161.944,67.126 160.5,66C 153.882,63.372 147.049,61.872 140,61.5C 115.953,61.9865 92.7867,67.4865 70.5,78C 69.1068,79.1711 68.2735,80.6711 68,82.5C 64,79.1667 60,75.8333 56,72.5C 55.3131,70.0797 55.8131,67.913 57.5,66C 67.9392,59.5172 79.2726,55.1839 91.5,53C 101.584,51.0604 111.584,49.5604 121.5,48.5 Z"/></g>
<g><path style="opacity:0.899" fill="#fefffe" d="M 114.5,75.5 C 122.84,75.3336 131.173,75.5003 139.5,76C 144.107,76.5877 148.107,78.421 151.5,81.5C 153.535,86.6263 152.202,90.6263 147.5,93.5C 146.495,92.8902 146.662,92.2236 148,91.5C 148.751,87.4047 146.918,85.2381 142.5,85C 125.596,83.3172 109.263,85.6505 93.5,92C 90.8268,93.0014 88.4935,94.5014 86.5,96.5C 83.5673,95.07 81.0673,93.07 79,90.5C 78.6124,88.9242 79.1124,87.5909 80.5,86.5C 84.7757,83.5293 89.4423,81.3627 94.5,80C 101.259,78.2849 107.925,76.7849 114.5,75.5 Z"/></g>
<g><path style="opacity:0.78" fill="#fefffe" d="M 109.5,102.5 C 110.991,103.457 112.824,104.123 115,104.5C 117.379,104.518 119.546,103.851 121.5,102.5C 121.833,102.833 122.167,103.167 122.5,103.5C 121.221,105.146 119.555,106.313 117.5,107C 114.211,107.882 110.877,108.548 107.5,109C 107.833,109.333 108.167,109.667 108.5,110C 107.5,110.333 106.5,110.667 105.5,111C 113.538,112.192 121.205,111.025 128.5,107.5C 129.113,106.02 129.446,104.687 129.5,103.5C 132.144,104.741 132.977,106.741 132,109.5C 128.238,113.13 123.738,115.297 118.5,116C 112.548,117.33 106.548,117.663 100.5,117C 97.2113,115.923 96.7113,114.09 99,111.5C 101.293,109.401 103.793,108.567 106.5,109C 105.643,108.311 104.977,107.478 104.5,106.5C 106.21,105.113 107.877,103.779 109.5,102.5 Z"/></g>
<g><path style="opacity:0.812" fill="#fefffe" d="M 138.5,111.5 C 139.695,111.866 140.361,112.699 140.5,114C 139.917,116.499 138.584,118.499 136.5,120C 124.172,126.86 111.005,129.36 97,127.5C 93.8371,124.594 94.0037,121.761 97.5,119C 100.554,118.179 103.554,118.345 106.5,119.5C 105.975,120.192 105.308,120.692 104.5,121C 115.309,122.254 125.642,120.587 135.5,116C 137.141,114.871 138.141,113.371 138.5,111.5 Z"/></g>
<g><path style="opacity:0.831" fill="#fefffe" d="M 142.5,121.5 C 144.068,125.256 143.068,128.423 139.5,131C 126.995,137.64 113.661,139.974 99.5,138C 93.3932,132.214 94.7265,129.381 103.5,129.5C 108.577,130.224 108.577,131.391 103.5,133C 116.527,133.528 128.86,130.861 140.5,125C 141.305,123.887 141.972,122.721 142.5,121.5 Z"/></g>
<g><path style="opacity:0.763" fill="#fefffe" d="M 141.5,133.5 C 142.525,133.897 142.692,134.563 142,135.5C 131.924,144.634 120.091,148.134 106.5,146C 99.8131,142.6 99.9798,140.434 107,139.5C 108.5,139.833 110,140.167 111.5,140.5C 110.975,141.192 110.308,141.692 109.5,142C 118.4,142.347 127.066,141.014 135.5,138C 138.106,137.208 140.106,135.708 141.5,133.5 Z"/></g>
<g><path style="opacity:0.516" fill="#fefffe" d="M 131.5,144.5 C 133.842,144.775 133.842,145.608 131.5,147C 126.754,148.693 121.92,149.86 117,150.5C 115.053,149.89 113.219,149.057 111.5,148C 115.833,147.667 120.167,147.333 124.5,147C 127.104,146.61 129.438,145.776 131.5,144.5 Z"/></g>
<g><path style="opacity:0.719" fill="#fefffe" d="M 32.5,163.5 C 33.4959,163.414 34.3292,163.748 35,164.5C 36.3333,169.167 37.6667,173.833 39,178.5C 40.2731,173.568 41.7731,168.735 43.5,164C 44.635,163.251 45.635,163.417 46.5,164.5C 47.7147,168.979 49.2147,173.312 51,177.5C 51.7945,173.45 52.7945,169.45 54,165.5C 54.7096,164.027 55.8762,163.36 57.5,163.5C 56.3057,169.943 54.639,176.276 52.5,182.5C 51.1667,183.833 49.8333,183.833 48.5,182.5C 47.0289,178.253 45.8623,173.919 45,169.5C 43.4646,173.773 42.1312,178.106 41,182.5C 39.6439,183.38 38.1439,183.714 36.5,183.5C 35.3779,177.178 33.7112,171.011 31.5,165C 32.056,164.617 32.3893,164.117 32.5,163.5 Z"/></g>
<g><path style="opacity:0.738" fill="#fefffe" d="M 66.5,163.5 C 75.7473,163.644 79.5806,168.311 78,177.5C 75.0812,183.025 70.5812,184.858 64.5,183C 58.8305,179.488 57.3305,174.654 60,168.5C 61.8049,166.174 63.9716,164.508 66.5,163.5 Z M 66.5,166.5 C 71.7698,166.269 74.7698,168.769 75.5,174C 74.6654,180.039 71.3321,182.039 65.5,180C 64.3333,179.5 63.5,178.667 63,177.5C 61.6631,172.872 62.8298,169.205 66.5,166.5 Z"/></g>
<g><path style="opacity:0.723" fill="#fefffe" d="M 81.5,163.5 C 84.941,163.301 88.2744,163.801 91.5,165C 95.6566,168.931 95.3232,172.598 90.5,176C 91.7079,178.25 93.0413,180.417 94.5,182.5C 93.1667,183.833 91.8333,183.833 90.5,182.5C 86.2962,173.036 84.2962,173.369 84.5,183.5C 83.1779,183.67 82.0113,183.337 81,182.5C 80.2098,176.085 80.3765,169.752 81.5,163.5 Z M 84.5,166.5 C 89.4786,165.65 91.4786,167.483 90.5,172C 88.6547,173.128 86.6547,173.628 84.5,173.5C 84.5,171.167 84.5,168.833 84.5,166.5 Z"/></g>
<g><path style="opacity:0.788" fill="#fefffe" d="M 98.5,163.5 C 100.45,168.735 101.117,174.402 100.5,180.5C 102.833,180.5 105.167,180.5 107.5,180.5C 107.5,181.5 107.5,182.5 107.5,183.5C 104.167,183.5 100.833,183.5 97.5,183.5C 97.2066,176.745 97.5399,170.078 98.5,163.5 Z"/></g>
<g><path style="opacity:0.757" fill="#fefffe" d="M 109.5,163.5 C 118.196,162.036 123.863,165.37 126.5,173.5C 124.424,182.528 118.758,185.862 109.5,183.5C 109.5,176.833 109.5,170.167 109.5,163.5 Z M 112.5,166.5 C 120.785,165.735 123.952,169.401 122,177.5C 119.454,180.186 116.287,181.186 112.5,180.5C 112.5,175.833 112.5,171.167 112.5,166.5 Z"/></g>
<g><path style="opacity:0.817" fill="#fefffe" d="M 134.5,163.5 C 136.467,163.261 138.301,163.594 140,164.5C 140.882,167.789 141.548,171.123 142,174.5C 143.466,171.317 144.633,167.984 145.5,164.5C 147.396,163.534 149.396,163.201 151.5,163.5C 152.329,167.486 153.163,171.486 154,175.5C 155.028,171.527 155.861,167.527 156.5,163.5C 158.5,163.5 160.5,163.5 162.5,163.5C 160.992,169.863 159.326,176.196 157.5,182.5C 155.257,183.474 152.924,183.808 150.5,183.5C 150.295,180.012 149.461,176.679 148,173.5C 147.321,176.55 146.488,179.55 145.5,182.5C 143.305,183.769 141.139,183.769 139,182.5C 137.024,176.265 135.524,169.932 134.5,163.5 Z"/></g>
<g><path style="opacity:0.732" fill="#fefffe" d="M 164.5,163.5 C 166.167,163.5 167.833,163.5 169.5,163.5C 169.5,170.167 169.5,176.833 169.5,183.5C 167.5,183.5 165.5,183.5 163.5,183.5C 163.207,176.745 163.54,170.078 164.5,163.5 Z"/></g>
<g><path style="opacity:0.75" fill="#fefffe" d="M 172.5,163.5 C 176.514,163.334 180.514,163.501 184.5,164C 185.833,165.333 185.833,166.667 184.5,168C 182.19,168.497 179.857,168.663 177.5,168.5C 177.5,169.5 177.5,170.5 177.5,171.5C 179.5,171.5 181.5,171.5 183.5,171.5C 183.985,176.159 182.152,177.492 178,175.5C 177.503,178.146 177.336,180.813 177.5,183.5C 175.5,183.5 173.5,183.5 171.5,183.5C 171.207,176.745 171.54,170.078 172.5,163.5 Z"/></g>
<g><path style="opacity:0.741" fill="#fefffe" d="M 187.5,163.5 C 189.167,163.5 190.833,163.5 192.5,163.5C 192.5,170.167 192.5,176.833 192.5,183.5C 190.5,183.5 188.5,183.5 186.5,183.5C 186.207,176.745 186.54,170.078 187.5,163.5 Z"/></g>
</svg>
